<?xml version="1.0" encoding="utf-8"?>
<!-- Generator: Adobe Illustrator 24.1.1, SVG Export Plug-In . SVG Version: 6.00 Build 0)  -->
<svg
  version="1.1"
  id="Layer_1"
  xmlns="http://www.w3.org/2000/svg"
  xmlns:xlink="http://www.w3.org/1999/xlink"
  x="0px"
  y="0px"
  viewBox="0 0 512 512"
  style="enable-background: new 0 0 512 512"
  xml:space="preserve"
>
  <style type="text/css">
  .st0 {
    display: none;
  }
  .st1 {
    display: inline;
  }
  .st2 {
    display: inline;
    clip-path: url(#SVGID_3_);
    fill: #ffffff;
  }
  .st3 {
    fill: url(#SVGID_4_);
  }
  </style>
  <g id="WORK" class="st0">
    <defs>
      <path
        id="SVGID_1_"
        d="M512,256c0,141.38-114.62,256-256,256C114.62,512,0,397.38,0,256C0,114.61,114.62,0,256,0
			C397.38,0,512,114.61,512,256z"
      />
    </defs>
    <linearGradient
      id="SVGID_2_"
      gradientUnits="userSpaceOnUse"
      x1="0"
      y1="256"
      x2="512"
      y2="256"
    >
      <stop offset="0" style="stop-color: #2b97d3" />
      <stop offset="1" style="stop-color: #65bcea" />
    </linearGradient>
    <use
      xlink:href="#SVGID_1_"
      style="display: inline; overflow: visible; fill: url(#SVGID_2_)"
    />
    <clipPath id="SVGID_3_" class="st1">
      <use xlink:href="#SVGID_1_" style="overflow: visible" />
    </clipPath>
    <path
      class="st2"
      d="M476.7,181.49c20.15-13.25,29.79-29.87,28.88-49.89c-1.14-19.8-13.69-34.54-37.6-44.28
		c-17.92-7.27-38.76-10.91-62.48-10.91h-13l0,0h-17.59h-0.07h-9.98l-0.04,0.09C266.97,78.45,218,109.15,218,168.63
		c0,18.88,6.92,45.31,20.7,79.33c13.84,34.02,20.73,60.14,20.73,78.32c0,26.46-10.86,46.74-32.57,60.9
		c-18.71,12.29-42.06,18.46-70,18.46c-22.07,0-42.78-4.15-62.19-12.38c-25.07-10.79-37.61-25.7-37.61-44.73
		c0-16.85,9.07-29.58,27.28-38.16c13.96-6.57,30.43-9.84,49.26-9.84h9.69h10.01c14.47,0,27.38-3.28,38.67-9.88
		c12.61-7.4,20.7-17.59,24.25-30.56h-26.02l0,0H93.96c-93.51,0-140.25,27.48-140.25,82.37c0,37.74,25.35,65.69,76.08,83.89
		c36.02,12.97,77.38,19.44,124.04,19.44c51.05,0,95.59-8.49,133.65-25.5c51.05-23.07,76.58-57.7,76.58-103.85
		c0-21.55-7.57-51.36-22.65-89.44c-15.03-38.07-22.6-62.58-22.6-73.52c0-21.39,12.81-32.09,38.39-32.09
		c2.04,0,16.73-0.13,16.73-0.13h40.24l-30.29,60.25H476.7z"
    />
  </g>
  <linearGradient
    id="SVGID_4_"
    gradientUnits="userSpaceOnUse"
    x1="0"
    y1="256"
    x2="512"
    y2="256"
  >
    <stop offset="0" style="stop-color: #4495d1" />
    <stop offset="1" style="stop-color: #65bbe9" />
  </linearGradient>
  <path
    class="st3"
    d="M93.96,260.08c-39.39,0-70.48,4.88-93.28,14.62C0.24,268.53,0,262.29,0,256C0,114.61,114.62,0,256,0
	c73.03,0,138.91,30.58,185.55,79.64c-11.17-2.14-23.18-3.22-36.05-3.22h-13h-17.59h-0.07h-9.98l-0.04,0.09
	C266.97,78.45,218,109.15,218,168.63c0,18.88,6.92,45.31,20.7,79.33c13.84,34.02,20.73,60.14,20.73,78.32
	c0,26.46-10.86,46.74-32.57,60.9c-18.71,12.29-42.06,18.46-70,18.46c-22.07,0-42.78-4.15-62.19-12.38
	c-25.07-10.79-37.61-25.7-37.61-44.73c0-16.85,9.07-29.58,27.28-38.16c13.96-6.57,30.43-9.84,49.26-9.84h9.69h10.01
	c14.47,0,27.38-3.28,38.67-9.88c12.61-7.4,20.7-17.59,24.25-30.56h-26.02H93.96z M495.24,164.75c-4.63,6.08-10.81,11.66-18.54,16.74
	h-92.81l30.29-60.25h-40.24c0,0-14.69,0.13-16.73,0.13c-25.58,0-38.39,10.7-38.39,32.09c0,10.94,7.57,35.46,22.6,73.52
	c15.08,38.09,22.65,67.9,22.65,89.44c0,46.15-25.52,80.78-76.58,103.85c-38.06,17.02-82.61,25.5-133.65,25.5
	c-27.43,0-53.01-2.25-76.76-6.73C123.22,484.17,186.35,512,256,512c141.39,0,256-114.62,256-256
	C512,223.85,506.06,193.1,495.24,164.75z"
  />
</svg>
