<svg xmlns="http://www.w3.org/2000/svg" fill="none" viewBox="0 0 88 24" height="24" width="88">
<path fill="#4594D1" d="M82.0636 15.4944L84.4049 8.87853H79.8113L77.4699 15.4944H74.8861L77.2648 8.87853H72.6463L70.4313 14.9992C70.3733 15.1671 70.3422 15.3307 70.3236 15.4944H66.7473L71.4943 2.18596H66.9897L62.2697 15.4944H58.2894L63.0364 2.18596H58.5318L53.8118 15.4944C53.8035 15.5193 53.7994 15.5421 53.7932 15.567H46.6675C45.5839 15.567 45.0431 15.2313 45.0431 14.5558C45.0431 14.4149 45.0721 14.2574 45.1301 14.0813L46.1537 11.0728H48.8701L47.2394 15.567C47.2394 15.567 50.536 14.3072 51.572 13.7581C52.523 13.2525 52.9001 12.4258 52.8587 11.5348C52.809 10.6522 52.2516 9.99534 51.1866 9.56229C50.3868 9.23699 49.4585 9.07537 48.4018 9.07537H46.5909C44.9498 9.07537 43.5367 9.45869 42.3453 10.2253C40.9633 11.1163 40.2733 12.345 40.2733 13.9093C40.2733 14.5455 40.4122 15.0987 40.6877 15.569H36.3925L37.8118 11.512C37.961 11.1121 38.1993 10.4512 38.1993 10.1445C38.1993 9.295 37.3725 9.09609 36.5396 9.09609C35.2902 9.09609 34.1754 9.50013 33.1933 10.3082L29.7994 13.0992L33.558 2.4864H29.0617L23.718 17.5706H26.2915C26.94 17.5706 27.5554 17.3178 28.1397 16.8102L32.8721 12.9148L31.9729 15.5732C31.8486 15.9565 31.7864 16.2818 31.7864 16.547C31.7864 17.2308 32.2568 17.5706 33.1975 17.5706H60.4546C61.0659 17.5706 61.6378 17.409 62.1723 17.1541C62.2511 17.1168 62.3257 17.0774 62.3982 17.036C62.6924 17.3675 63.2311 17.5354 64.0143 17.5354H68.9126C69.5238 17.5354 70.0957 17.409 70.6302 17.1541C70.7131 17.1147 70.7919 17.0733 70.8685 17.0298C71.2353 17.3675 71.6953 17.5374 72.2505 17.5374H73.2182C72.7437 17.8772 72.3604 18.3642 72.0661 19.0003C71.774 19.6364 71.6289 20.2932 71.6289 20.9728C71.6289 21.8285 71.8797 22.5289 72.379 23.0717C72.9571 23.6913 73.7735 24 74.8343 24C76.5209 24 77.9341 23.3307 79.0716 21.9902C79.8859 21.0225 80.6608 19.5369 81.4005 17.5354H84.5064C85.8802 17.5354 86.8188 16.8578 87.3181 15.4986H82.0636V15.4944ZM75.1306 22.0606C74.6396 21.7208 74.393 21.2712 74.393 20.7117C74.393 20.0839 74.6313 19.454 75.112 18.8221C75.5906 18.1901 76.1107 17.8752 76.6701 17.8752L75.1306 22.0606ZM21.9423 5.19036L23.4383 2.2129H21.4513C21.4513 2.2129 20.724 2.21911 20.6245 2.21911C19.3606 2.21911 18.7266 2.74747 18.7266 3.80419C18.7266 4.34499 19.0975 5.55711 19.8434 7.43642C20.5872 9.31779 20.9602 10.791 20.9602 11.856C20.9602 14.1373 19.7004 15.8467 17.1767 16.9883C15.2954 17.8275 13.0928 18.2481 10.5712 18.2481C8.26505 18.2481 6.22206 17.927 4.44013 17.2867C1.93715 16.3916 0.683594 15.0096 0.683594 13.1448C0.683594 10.4305 2.99388 9.0733 7.61444 9.0733H13.6564C13.4824 9.71562 13.0825 10.217 12.4588 10.5859C11.9014 10.9112 11.2653 11.0728 10.5484 11.0728H9.57455C8.64215 11.0728 7.82993 11.2344 7.13995 11.5597C6.2407 11.9845 5.79108 12.6123 5.79108 13.4452C5.79108 14.3859 6.41061 15.1235 7.65174 15.656C8.609 16.0642 9.63257 16.2673 10.7224 16.2673C12.1045 16.2673 13.2565 15.9627 14.1806 15.3556C15.2539 14.6573 15.7906 13.6545 15.7906 12.3471C15.7906 11.4478 15.4487 10.159 14.767 8.47656C14.0853 6.79617 13.7434 5.48873 13.7434 4.55633C13.7434 1.61823 16.1615 0.0994554 20.9996 0.00414331V0H21.4927H21.4969H22.365H23.0073C24.1801 0 25.2099 0.180264 26.0967 0.53872C27.2798 1.01942 27.8973 1.74877 27.9532 2.72675C27.9988 3.7151 27.5243 4.53768 26.5256 5.19244H21.9403L21.9423 5.19036Z"></path>
</svg>
